<?xml version="1.0" encoding="iso-8859-1"?>
<!-- Uploaded to: SVG Repo, www.svgrepo.com, Generator: SVG Repo Mixer Tools -->
<svg height="800px" width="800px" version="1.1" id="Layer_1" xmlns="http://www.w3.org/2000/svg" xmlns:xlink="http://www.w3.org/1999/xlink" 
	 viewBox="0 0 512 512" xml:space="preserve">
<polygon style="fill:#EBEBEB;" points="430.519,108.396 430.519,501.159 81.483,501.159 81.483,10.84 332.962,10.84 "/>
<polygon style="fill:#A8A8A8;" points="430.519,108.396 332.962,108.396 332.962,10.84 "/>
<path style="fill:#FFAC3D;" d="M300.538,164.556h-89.075l-62.985,62.985v89.075l62.985,62.985h89.075l62.985-62.985v-89.075
	L300.538,164.556z M256.001,320.857c-26.94,0-48.778-21.839-48.778-48.778c0-26.94,21.839-48.778,48.778-48.778
	s48.778,21.839,48.778,48.778C304.779,299.018,282.94,320.857,256.001,320.857z"/>
<g>
	<path style="fill:#231F20;" d="M438.184,100.732L340.627,3.175C338.594,1.142,335.837,0,332.961,0H81.482
		c-5.986,0-10.84,4.854-10.84,10.84V501.16c0,5.986,4.854,10.84,10.84,10.84h349.036c5.986,0,10.84-4.854,10.84-10.84V108.396
		C441.358,105.522,440.216,102.765,438.184,100.732z M404.349,97.557h-60.548V37.01L404.349,97.557z M92.322,490.321V21.679h229.8
		v86.717c0,5.986,4.854,10.84,10.84,10.84h86.717v371.085H92.322z"/>
	<path style="fill:#231F20;" d="M308.204,156.892c-2.034-2.032-4.79-3.175-7.665-3.175h-89.075c-2.875,0-5.631,1.142-7.665,3.175
		l-62.986,62.984c-2.032,2.032-3.175,4.79-3.175,7.665v89.076c0,2.875,1.143,5.632,3.175,7.665l62.986,62.984
		c2.034,2.032,4.79,3.175,7.665,3.175h89.075c2.875,0,5.631-1.142,7.665-3.175l62.985-62.984c2.032-2.034,3.175-4.79,3.175-7.665
		V227.54c0-2.875-1.142-5.631-3.175-7.665L308.204,156.892z M352.684,312.126l-56.635,56.635h-80.096l-56.636-56.635v-80.095
		l56.636-56.635h80.096l56.635,56.635V312.126z"/>
	<path style="fill:#231F20;" d="M196.382,272.079c0,32.873,26.745,59.618,59.618,59.618s59.618-26.745,59.618-59.618
		S288.873,212.461,256,212.461S196.382,239.206,196.382,272.079z M293.939,272.079c0,20.919-17.019,37.939-37.939,37.939
		s-37.939-17.019-37.939-37.939S235.081,234.14,256,234.14S293.939,251.16,293.939,272.079z"/>
	<path style="fill:#231F20;" d="M363.524,387.16c-5.986,0-10.84,4.854-10.84,10.84v24.208H159.317V398
		c0-5.986-4.854-10.84-10.84-10.84s-10.84,4.854-10.84,10.84v64.315c0,5.986,4.854,10.84,10.84,10.84s10.84-4.854,10.84-10.84
		v-18.427h193.367v18.427c0,5.986,4.854,10.84,10.84,10.84c5.986,0,10.84-4.854,10.84-10.84V398
		C374.363,392.013,369.509,387.16,363.524,387.16z"/>
	<path style="fill:#231F20;" d="M148.477,161.304c5.986,0,10.84-4.854,10.84-10.84v-50.194c0-5.986-4.854-10.84-10.84-10.84
		s-10.84,4.854-10.84,10.84v50.194C137.638,156.451,142.492,161.304,148.477,161.304z"/>
	<path style="fill:#231F20;" d="M148.477,75.34c5.986,0,10.84-4.854,10.84-10.84v-2.168c0-5.986-4.854-10.84-10.84-10.84
		s-10.84,4.854-10.84,10.84V64.5C137.638,70.486,142.492,75.34,148.477,75.34z"/>
</g>
</svg>